<svg width="60" height="60" viewBox="0 0 60 60" fill="none" xmlns="http://www.w3.org/2000/svg">
<rect width="60" height="60" fill="#F5F5F5"/>
<circle cx="30" cy="30" r="30" fill="#DF761F"/>
<path d="M26.5057 37V35.7216L31.3068 30.4659C31.8703 29.8504 32.3343 29.3153 32.6989 28.8608C33.0634 28.4015 33.3333 27.9706 33.5085 27.5682C33.6884 27.161 33.7784 26.7348 33.7784 26.2898C33.7784 25.7784 33.6553 25.3357 33.4091 24.9616C33.1676 24.5876 32.8362 24.2988 32.4148 24.0952C31.9934 23.8916 31.5199 23.7898 30.9943 23.7898C30.4356 23.7898 29.9479 23.9058 29.5312 24.1378C29.1193 24.3651 28.7997 24.6847 28.5724 25.0966C28.3499 25.5085 28.2386 25.9915 28.2386 26.5455H26.5625C26.5625 25.6932 26.759 24.9451 27.152 24.3011C27.545 23.6572 28.08 23.1553 28.7571 22.7955C29.4389 22.4356 30.2036 22.2557 31.0511 22.2557C31.9034 22.2557 32.6586 22.4356 33.3168 22.7955C33.9749 23.1553 34.491 23.6406 34.8651 24.2514C35.2391 24.8622 35.4261 25.5417 35.4261 26.2898C35.4261 26.8248 35.3291 27.348 35.1349 27.8594C34.9455 28.366 34.6141 28.9318 34.1406 29.5568C33.6719 30.1771 33.0208 30.9347 32.1875 31.8295L28.9205 35.3239V35.4375H35.6818V37H26.5057Z" fill="#F5F5F5"/>
</svg>
