<svg width="60" height="60" viewBox="0 0 60 60" fill="none" xmlns="http://www.w3.org/2000/svg">
<rect width="60" height="60" fill="#F5F5F5"/>
<circle cx="30" cy="30" r="30" fill="#DF761F"/>
<path d="M31.4205 37.1989C30.483 37.1989 29.6473 37.0379 28.9134 36.7159C28.1842 36.3939 27.6042 35.9465 27.1733 35.3736C26.7472 34.7959 26.5152 34.1259 26.4773 33.3636H28.267C28.3049 33.8324 28.4659 34.2372 28.75 34.5781C29.0341 34.9143 29.4058 35.1747 29.8651 35.3594C30.3243 35.544 30.8333 35.6364 31.392 35.6364C32.017 35.6364 32.571 35.5275 33.054 35.3097C33.5369 35.0919 33.9157 34.7888 34.1903 34.4006C34.465 34.0123 34.6023 33.5625 34.6023 33.0511C34.6023 32.5161 34.4697 32.045 34.2045 31.6378C33.9394 31.2259 33.5511 30.9039 33.0398 30.6719C32.5284 30.4399 31.9034 30.3239 31.1648 30.3239H30V28.7614H31.1648C31.7424 28.7614 32.2491 28.6572 32.6847 28.4489C33.125 28.2405 33.4683 27.947 33.7145 27.5682C33.9654 27.1894 34.0909 26.7443 34.0909 26.233C34.0909 25.7405 33.982 25.312 33.7642 24.9474C33.5464 24.5829 33.2386 24.2988 32.8409 24.0952C32.4479 23.8916 31.9839 23.7898 31.4489 23.7898C30.947 23.7898 30.4735 23.8821 30.0284 24.0668C29.5881 24.2467 29.2282 24.5095 28.9489 24.8551C28.6695 25.196 28.518 25.608 28.4943 26.0909H26.7898C26.8182 25.3286 27.0478 24.661 27.4787 24.0881C27.9096 23.5104 28.473 23.0606 29.169 22.7386C29.8698 22.4167 30.6392 22.2557 31.4773 22.2557C32.3769 22.2557 33.1487 22.438 33.7926 22.8026C34.4366 23.1624 34.9313 23.6383 35.277 24.2301C35.6226 24.822 35.7955 25.4612 35.7955 26.1477C35.7955 26.9669 35.58 27.6652 35.1491 28.2429C34.723 28.8205 34.143 29.2206 33.4091 29.4432V29.5568C34.3277 29.7083 35.045 30.099 35.5611 30.7287C36.0772 31.3537 36.3352 32.1278 36.3352 33.0511C36.3352 33.8419 36.1198 34.5521 35.6889 35.1818C35.2628 35.8068 34.6804 36.2992 33.9418 36.6591C33.2031 37.0189 32.3627 37.1989 31.4205 37.1989Z" fill="#F5F5F5"/>
</svg>
